<?xml version="1.0" encoding="UTF-8" standalone="no"?>
<!-- Created with Inkscape (http://www.inkscape.org/) -->

<svg
   xmlns:dc="http://purl.org/dc/elements/1.1/"
   xmlns:cc="http://creativecommons.org/ns#"
   xmlns:rdf="http://www.w3.org/1999/02/22-rdf-syntax-ns#"
   xmlns:svg="http://www.w3.org/2000/svg"
   xmlns="http://www.w3.org/2000/svg"
   xmlns:sodipodi="http://sodipodi.sourceforge.net/DTD/sodipodi-0.dtd"
   xmlns:inkscape="http://www.inkscape.org/namespaces/inkscape"
   version="1.1"
   id="svg10"
   xml:space="preserve"
   width="1066.6667"
   height="1066.6667"
   viewBox="0 0 1066.6667 1066.6667"
   sodipodi:docname="SMANPY.svg"
   inkscape:version="0.92.1 r15371"><metadata
     id="metadata16"><rdf:RDF><cc:Work
         rdf:about=""><dc:format>image/svg+xml</dc:format><dc:type
           rdf:resource="http://purl.org/dc/dcmitype/StillImage" /><dc:title></dc:title></cc:Work></rdf:RDF></metadata><defs
     id="defs14"><clipPath
       clipPathUnits="userSpaceOnUse"
       id="clipPath26"><path
         d="M 0,800 H 800 V 0 H 0 Z"
         id="path24"
         inkscape:connector-curvature="0" /></clipPath><clipPath
       clipPathUnits="userSpaceOnUse"
       id="clipPath94"><path
         d="M 100.243,701.781 H 712.536 V 262.978 H 100.243 Z"
         id="path92"
         inkscape:connector-curvature="0" /></clipPath></defs><sodipodi:namedview
     pagecolor="#ffffff"
     bordercolor="#666666"
     borderopacity="1"
     objecttolerance="10"
     gridtolerance="10"
     guidetolerance="10"
     inkscape:pageopacity="0"
     inkscape:pageshadow="2"
     inkscape:window-width="1920"
     inkscape:window-height="1031"
     id="namedview12"
     showgrid="false"
     inkscape:zoom="0.79499994"
     inkscape:cx="533.33337"
     inkscape:cy="533.33337"
     inkscape:window-x="-8"
     inkscape:window-y="-8"
     inkscape:window-maximized="1"
     inkscape:current-layer="g18" /><g
     id="g18"
     inkscape:groupmode="layer"
     inkscape:label="logos"
     transform="matrix(1.3333333,0,0,-1.3333333,0,1066.6667)"><g
       id="g20"><g
         id="g22"
         clip-path="url(#clipPath26)"><g
           id="g28"
           transform="translate(395.8575,706.5771)"><path
             d="m 0,0 46.464,77.036 c 5.739,9.498 42.434,-2.859 81.872,-27.523 L 192.309,9.485 c 39.438,-24.664 66.903,-52.432 61.122,-61.865 l -46.473,-77.05 z"
             style="fill:#e83753;fill-opacity:1;fill-rule:nonzero;stroke:none"
             id="path30"
             inkscape:connector-curvature="0" /></g><g
           id="g32"
           transform="translate(181.4276,224.9371)"><path
             d="m 0,0 -16.281,99.805 2.552,4.223 c 5.1,3.959 19.076,7.118 55.484,-15.631 C 79.456,64.799 86.267,47.814 87.058,40.292 L 54.94,-12.049 C 41.309,-3.907 23.396,1.497 0,0"
             style="fill:#f8b058;fill-opacity:1;fill-rule:nonzero;stroke:none"
             id="path34"
             inkscape:connector-curvature="0" /></g><g
           id="g36"
           transform="translate(167.6983,328.9654)"><path
             d="M 0,0 195.293,323.081 298.474,258.552 100.787,-63.736 c -0.791,7.522 -7.601,24.507 -45.303,48.105 C 19.076,7.118 5.1,3.958 0,0"
             style="fill:#ffd402;fill-opacity:1;fill-rule:nonzero;stroke:none"
             id="path38"
             inkscape:connector-curvature="0" /></g><g
           id="g40"
           transform="translate(376.324,674.1125)"><path
             d="m 0,0 19.534,32.465 206.958,-129.43 -6.517,-10.785 -26.469,-43.672 -103.658,64.827 -103.181,64.529 z"
             style="fill:#b4b4b4;fill-opacity:1;fill-rule:nonzero;stroke:none"
             id="path42"
             inkscape:connector-curvature="0" /></g><g
           id="g44"
           transform="translate(194.2992,146.2521)"><path
             d="m 0,0 -12.872,78.685 c 23.396,1.497 41.309,-3.907 54.94,-12.049 L 0.92,-0.515 Z"
             style="fill:#1b1615;fill-opacity:1;fill-rule:nonzero;stroke:none"
             id="path46"
             inkscape:connector-curvature="0" /></g><g
           id="g48"
           transform="translate(194.6738,143.8835)"><path
             d="M 0,0 -0.375,2.369 0.545,1.854 41.694,69.005 C 66.607,54.129 76.934,30.193 79.536,23.089 Z"
             style="fill:#1d2026;fill-opacity:1;fill-rule:nonzero;stroke:none"
             id="path50"
             inkscape:connector-curvature="0" /></g><g
           id="g52"
           transform="translate(236.3676,212.8882)"><path
             d="m 0,0 32.118,52.341 c 0.366,-2.927 -0.149,-4.458 -0.149,-4.458 l 0.033,-0.624 c 0,0 6.445,20.313 58.453,-12.212 52.008,-32.526 45.086,-52.54 45.086,-52.54 L 135.6,-17.531 37.842,-45.916 C 35.24,-38.812 24.913,-14.876 0,0"
             style="fill:#fabe74;fill-opacity:1;fill-rule:nonzero;stroke:none"
             id="path54"
             inkscape:connector-curvature="0" /></g><g
           id="g56"
           transform="translate(268.4855,265.2292)"><path
             d="M 0,0 197.687,322.288 301.345,257.462 103.56,-69.88 l -0.077,0.008 -0.06,0.038 c 0,0 6.922,20.014 -45.086,52.539 C 6.33,15.231 -0.116,-5.082 -0.116,-5.082 l -0.033,0.624 c 0,0 0.515,1.531 0.149,4.458"
             style="fill:#ffd400;fill-opacity:1;fill-rule:nonzero;stroke:none"
             id="path58"
             inkscape:connector-curvature="0" /></g><g
           id="g60"
           transform="translate(356.3514,486.2396)"><path
             d="m 0,0 c -8.119,-13.463 -25.918,-17.368 -39.758,-8.724 -13.833,8.641 -18.467,26.56 -10.344,40.011 8.12,13.463 25.925,17.368 39.755,8.735 C 3.493,31.37 8.127,13.455 0,0"
             style="fill:#261f1f;fill-opacity:1;fill-rule:nonzero;stroke:none"
             id="path62"
             inkscape:connector-curvature="0" /></g><g
           id="g64"
           transform="translate(332.3371,511.7681)"><path
             d="m 0,0 c -2.549,-4.222 -8.18,-5.423 -12.579,-2.678 -4.4,2.753 -5.899,8.403 -3.354,12.621 2.55,4.218 8.184,5.423 12.583,2.674 C 1.05,9.871 2.549,4.218 0,0"
             style="fill:#ffffff;fill-opacity:1;fill-rule:nonzero;stroke:none"
             id="path66"
             inkscape:connector-curvature="0" /></g><g
           id="g68"
           transform="translate(342.9981,484.1135)"><path
             d="m 0,0 c -1.862,-3.086 -5.937,-3.988 -9.101,-2.017 -3.157,1.972 -4.215,6.077 -2.353,9.169 1.866,3.078 5.94,3.981 9.101,2.006 C 0.808,7.19 1.862,3.078 0,0"
             style="fill:#ffffff;fill-opacity:1;fill-rule:nonzero;stroke:none"
             id="path70"
             inkscape:connector-curvature="0" /></g><g
           id="g72"
           transform="translate(486.1424,402.4035)"><path
             d="m 0,0 c -8.112,-13.463 -25.918,-17.375 -39.754,-8.731 -13.833,8.644 -18.467,26.563 -10.348,40.011 8.123,13.467 25.925,17.375 39.762,8.738 C 3.493,31.374 8.123,13.455 0,0"
             style="fill:#261f1f;fill-opacity:1;fill-rule:nonzero;stroke:none"
             id="path74"
             inkscape:connector-curvature="0" /></g><g
           id="g76"
           transform="translate(462.132,427.9244)"><path
             d="m 0,0 c -2.545,-4.222 -8.18,-5.412 -12.579,-2.67 -4.403,2.749 -5.903,8.399 -3.354,12.621 2.546,4.222 8.18,5.423 12.583,2.666 C 1.05,9.879 2.549,4.226 0,0"
             style="fill:#ffffff;fill-opacity:1;fill-rule:nonzero;stroke:none"
             id="path78"
             inkscape:connector-curvature="0" /></g><g
           id="g80"
           transform="translate(472.7853,400.2662)"><path
             d="m 0,0 c -1.854,-3.078 -5.933,-3.98 -9.098,-2.005 -3.16,1.971 -4.214,6.076 -2.348,9.169 1.861,3.081 5.932,3.976 9.097,2.009 C 0.804,7.198 1.862,3.093 0,0"
             style="fill:#ffffff;fill-opacity:1;fill-rule:nonzero;stroke:none"
             id="path82"
             inkscape:connector-curvature="0" /></g><g
           id="g84"
           transform="translate(394.5495,379.3638)"><path
             d="M 0,0 C -12.024,-19.94 -38.784,-25.476 -59.78,-12.364 -80.769,0.744 -88.031,27.534 -76,47.462 Z"
             style="fill:#261f1f;fill-opacity:1;fill-rule:nonzero;stroke:none"
             id="path86"
             inkscape:connector-curvature="0" /></g><g
           id="g88"><g
             id="g90" /><g
             id="g150"><g
               clip-path="url(#clipPath94)"
               id="g148"><g
                 transform="translate(669.4246,358.943)"
                 id="g98"><path
                   d="m 0,0 c 26.336,56.121 -0.852,124.577 -60.565,152.599 -59.742,28.036 -129.771,5.201 -156.107,-50.92 -26.336,-56.121 0.852,-124.577 60.594,-152.613 C -96.365,-78.955 -26.336,-56.121 0,0 M -46.519,182.53 C 29.716,146.755 64.007,58.567 29.931,-14.046 -4.144,-86.659 -93.889,-116.64 -170.124,-80.865 c -70.069,32.882 -104.704,109.983 -83.457,178.608 0.904,-1.264 1.648,-2.636 2.203,-4.101 1.583,-4.176 4.678,-7.309 8.419,-9.064 3.921,-1.84 8.559,-2.154 12.925,-0.477 8.527,3.229 12.8,12.802 9.541,21.344 -3.941,10.359 -10.617,18.313 -18.432,24.464 38.506,62.207 121.32,85.98 192.406,52.621"
                   style="fill:#b91e1e;fill-opacity:1;fill-rule:nonzero;stroke:none"
                   id="path96"
                   inkscape:connector-curvature="0" /></g><g
                 transform="translate(604.7791,383.6917)"
                 id="g102"><path
                   d="m 0,0 c 14.355,30.59 0.544,67.312 -30.764,82.004 -31.308,14.692 -68.38,1.848 -82.735,-28.741 -14.355,-30.59 -0.544,-67.312 30.764,-82.005 C -51.427,-43.434 -14.355,-30.59 0,0 M 4.081,127.85 C 63.794,99.828 90.982,31.372 64.645,-24.749 38.309,-80.87 -31.719,-103.704 -91.432,-75.682 c -59.743,28.036 -86.931,96.492 -60.595,152.613 26.337,56.121 96.365,78.955 156.108,50.919"
                   style="fill:#ffffff;fill-opacity:1;fill-rule:nonzero;stroke:none"
                   id="path100"
                   inkscape:connector-curvature="0" /></g><g
                 transform="translate(548.0789,431.5194)"
                 id="g106"><path
                   d="m 0,0 c 4.481,9.548 0.065,21.153 -9.872,25.816 -9.997,4.691 -21.714,0.658 -26.195,-8.891 -4.509,-9.607 -0.109,-21.168 9.888,-25.859 C -16.242,-13.598 -4.509,-9.608 0,0 m 28.707,-55.801 c 3.315,7.063 0.163,15.445 -7.02,18.816 -7.124,3.343 -15.615,0.425 -18.93,-6.639 -3.287,-7.003 -0.133,-15.459 6.991,-18.802 7.183,-3.371 15.673,-0.379 18.959,6.625 M 25.936,34.176 C 57.244,19.484 71.055,-17.238 56.7,-47.828 42.345,-78.418 5.274,-91.261 -26.034,-76.569 c -31.309,14.692 -45.12,51.414 -30.765,82.004 14.355,30.589 51.427,43.433 82.735,28.741"
                   style="fill:#261f1f;fill-opacity:1;fill-rule:nonzero;stroke:none"
                   id="path104"
                   inkscape:connector-curvature="0" /></g><g
                 transform="translate(569.7656,394.5347)"
                 id="g110"><path
                   d="m 0,0 c 7.183,-3.371 10.335,-11.753 7.021,-18.817 -3.287,-7.004 -11.777,-9.996 -18.96,-6.625 -7.124,3.343 -10.278,11.799 -6.991,18.803 C -15.615,0.425 -7.124,3.343 0,0"
                   style="fill:#ffffff;fill-opacity:1;fill-rule:nonzero;stroke:none"
                   id="path108"
                   inkscape:connector-curvature="0" /></g><g
                 transform="translate(538.207,457.3353)"
                 id="g114"><path
                   d="m 0,0 c 9.937,-4.663 14.353,-16.268 9.872,-25.816 -4.509,-9.608 -16.242,-13.597 -26.179,-8.934 -9.997,4.691 -14.397,16.252 -9.888,25.86 C -21.715,0.658 -9.997,4.691 0,0"
                   style="fill:#ffffff;fill-opacity:1;fill-rule:nonzero;stroke:none"
                   id="path112"
                   inkscape:connector-curvature="0" /></g><g
                 transform="translate(448.9315,464.3876)"
                 id="g118"><path
                   d="m 0,0 c 3.259,-8.542 -1.014,-18.114 -9.541,-21.344 -4.366,-1.676 -9.004,-1.363 -12.925,0.477 -3.741,1.756 -6.836,4.888 -8.419,9.064 -0.555,1.466 -1.299,2.838 -2.203,4.102 1.905,6.082 4.211,12.085 6.978,17.982 2.317,4.938 4.892,9.647 7.678,14.183 C -10.617,18.313 -3.941,10.359 0,0"
                   style="fill:#b91e1e;fill-opacity:1;fill-rule:nonzero;stroke:none"
                   id="path116"
                   inkscape:connector-curvature="0" /></g><g
                 transform="translate(430.4998,488.8515)"
                 id="g122"><path
                   d="m 0,0 c -2.786,-4.536 -5.361,-9.245 -7.678,-14.183 -2.768,-5.897 -5.073,-11.9 -6.978,-17.982 -6.953,10.166 -23.223,15.5 -34.463,17.853 3.13,4.959 6.004,10.148 8.546,15.565 2.318,4.939 4.308,9.958 6.001,15.044 C -23.748,13.446 -10.816,8.472 0,0"
                   style="fill:#b91e1e;fill-opacity:1;fill-rule:nonzero;stroke:none"
                   id="path120"
                   inkscape:connector-curvature="0" /></g><g
                 transform="translate(395.9274,505.1486)"
                 id="g126"><path
                   d="m 0,0 c -1.693,-5.086 -3.683,-10.105 -6,-15.044 -2.543,-5.417 -5.416,-10.606 -8.547,-15.565 -4.252,0.9 -7.755,1.375 -9.8,1.531 -9.099,0.69 -15.937,8.611 -15.246,17.71 0.66,9.112 8.611,15.937 17.71,15.246 C -19.631,3.697 -10.9,2.924 0,0"
                   style="fill:#b91e1e;fill-opacity:1;fill-rule:nonzero;stroke:none"
                   id="path124"
                   inkscape:connector-curvature="0" /></g><g
                 transform="translate(359.9957,504.1509)"
                 id="g130"><path
                   d="m 0,0 c 26.336,56.121 -0.852,124.577 -60.565,152.599 -59.742,28.036 -129.741,5.187 -156.077,-50.934 -26.336,-56.121 0.822,-124.563 60.565,-152.599 C -96.365,-78.955 -26.336,-56.121 0,0 m 11.585,-28.081 c 2.045,-0.156 5.547,-0.631 9.8,-1.531 -38.857,-61.165 -120.961,-84.359 -191.509,-51.253 -76.234,35.775 -110.525,123.963 -76.449,196.576 34.075,72.613 123.82,102.594 200.054,66.819 C 24.508,149.199 59.128,70.352 35.932,0.998 25.032,3.921 16.301,4.695 14.048,4.876 4.95,5.566 -3.001,-1.258 -3.661,-10.371 -4.352,-19.47 2.486,-27.39 11.585,-28.081"
                   style="fill:#b91e1e;fill-opacity:1;fill-rule:nonzero;stroke:none"
                   id="path128"
                   inkscape:connector-curvature="0" /></g><g
                 transform="translate(308.4242,528.3522)"
                 id="g134"><path
                   d="m 0,0 c 14.355,30.59 0.603,67.284 -30.764,82.004 -31.308,14.692 -68.38,1.848 -82.735,-28.741 -14.355,-30.59 -0.544,-67.312 30.764,-82.005 C -51.367,-43.462 -14.355,-30.59 0,0 M -8.993,128.397 C 50.72,100.376 77.908,31.92 51.571,-24.201 c -26.336,-56.121 -96.364,-78.956 -156.077,-50.934 -59.743,28.036 -86.901,96.478 -60.565,152.599 26.337,56.121 96.335,78.969 156.078,50.933"
                   style="fill:#ffffff;fill-opacity:1;fill-rule:nonzero;stroke:none"
                   id="path132"
                   inkscape:connector-curvature="0" /></g><g
                 transform="translate(251.6959,576.1202)"
                 id="g138"><path
                   d="m 0,0 c 4.509,9.608 0.093,21.212 -9.844,25.876 -9.937,4.663 -21.714,0.657 -26.223,-8.951 -4.481,-9.548 -0.021,-21.136 9.916,-25.8 C -16.214,-13.538 -4.481,-9.548 0,0 m 28.735,-55.742 c 3.287,7.004 0.163,15.446 -7.02,18.817 -7.124,3.343 -15.613,0.351 -18.9,-6.653 -3.287,-7.004 -0.163,-15.445 6.961,-18.788 7.183,-3.371 15.673,-0.38 18.959,6.624 M 25.964,34.236 C 57.332,19.516 71.083,-17.178 56.728,-47.768 42.373,-78.358 5.361,-91.23 -26.006,-76.509 c -31.308,14.692 -45.12,51.414 -30.765,82.004 14.355,30.589 51.427,43.433 82.735,28.741"
                   style="fill:#261f1f;fill-opacity:1;fill-rule:nonzero;stroke:none"
                   id="path136"
                   inkscape:connector-curvature="0" /></g><g
                 transform="translate(273.4107,539.1953)"
                 id="g142"><path
                   d="m 0,0 c 7.184,-3.371 10.307,-11.813 7.021,-18.817 -3.287,-7.004 -11.777,-9.996 -18.96,-6.625 -7.124,3.343 -10.248,11.785 -6.961,18.789 C -15.613,0.351 -7.124,3.343 0,0"
                   style="fill:#ffffff;fill-opacity:1;fill-rule:nonzero;stroke:none"
                   id="path140"
                   inkscape:connector-curvature="0" /></g><g
                 transform="translate(241.8521,601.9958)"
                 id="g146"><path
                   d="m 0,0 c 9.937,-4.663 14.353,-16.268 9.844,-25.876 -4.481,-9.548 -16.214,-13.537 -26.151,-8.874 -9.938,4.663 -14.397,16.252 -9.916,25.8 C -21.715,0.658 -9.937,4.663 0,0"
                   style="fill:#ffffff;fill-opacity:1;fill-rule:nonzero;stroke:none"
                   id="path144"
                   inkscape:connector-curvature="0" /></g></g></g></g><g
           id="g152"
           transform="translate(70.8435,115.9169)"><path
             d="M 0,0 V 8.99 C 3.269,8.773 6.097,8.348 8.499,7.723 10.894,7.098 14.302,5.855 18.715,4.004 c 1.087,-0.437 1.986,-0.653 2.697,-0.653 1.029,0 1.798,0.355 2.288,1.062 l 1.798,2.37 c 0.866,1.197 1.928,1.798 3.187,1.798 1.471,0 2.542,-0.531 3.228,-1.594 0.678,-1.062 1.022,-2.737 1.022,-5.026 v -26.968 c 0,-1.582 -0.45,-2.873 -1.349,-3.882 -0.899,-1.01 -2.059,-1.512 -3.473,-1.512 -1.095,0 -2.1,0.355 -3.024,1.062 -0.49,0.437 -0.891,0.969 -1.185,1.594 -0.302,0.625 -0.588,1.675 -0.858,3.146 -0.605,2.668 -1.634,5.423 -3.105,8.254 -1.471,2.832 -3.188,5.365 -5.149,7.601 C 10.869,-4.331 5.933,-1.418 0,0 m -10.706,-97.251 v -9.317 c -4.47,0 -9.398,1.283 -14.792,3.841 -2.018,0.928 -3.408,1.525 -4.168,1.798 -0.768,0.274 -1.503,0.409 -2.206,0.409 -1.095,0 -1.913,-0.176 -2.452,-0.531 -0.547,-0.356 -1.422,-1.238 -2.615,-2.656 -0.981,-1.198 -2.043,-1.798 -3.187,-1.798 -3.057,0 -4.577,2.341 -4.577,7.028 v 29.747 c 0,1.525 0.433,2.82 1.308,3.882 0.866,1.063 1.961,1.622 3.269,1.676 1.193,0.053 2.133,-0.286 2.819,-1.022 0.678,-0.735 1.267,-2.031 1.757,-3.882 1.251,-4.687 3.065,-9.071 5.435,-13.157 2.37,-4.087 5.132,-7.548 8.295,-10.379 3.212,-2.942 6.914,-4.822 11.114,-5.639 M -6.456,9.398 V 0 c -3.384,-0.928 -5.958,-2.358 -7.723,-4.29 -1.773,-1.933 -2.656,-4.32 -2.656,-7.151 0,-2.726 0.735,-5.108 2.206,-7.151 1.471,-2.043 3.866,-3.992 7.192,-5.843 2.288,-1.255 7.462,-3.649 15.528,-7.192 4.903,-2.125 8.703,-4.045 11.4,-5.762 2.697,-1.716 5.239,-3.853 7.641,-6.415 6.424,-6.754 9.644,-14.792 9.644,-24.108 0,-7.029 -1.749,-13.456 -5.231,-19.287 -3.489,-5.831 -8.286,-10.408 -14.383,-13.73 -3.269,-1.745 -6.857,-3.117 -10.747,-4.127 -3.898,-1.005 -7.535,-1.512 -10.91,-1.512 v 9.317 c 4.74,1.144 8.156,2.738 10.257,4.781 2.092,2.043 3.146,4.809 3.146,8.295 0,3.649 -1.635,6.864 -4.904,9.643 -2.182,1.798 -6.325,4.033 -12.422,6.701 -6.701,2.942 -11.294,5.039 -13.77,6.293 -2.484,1.255 -4.863,2.726 -7.151,4.413 -10.248,7.302 -15.364,17.027 -15.364,29.176 0,6.211 1.275,11.943 3.841,17.202 2.558,5.259 6.129,9.493 10.706,12.708 6.374,4.467 14.269,6.947 23.7,7.437"
             style="fill:#1d1d1b;fill-opacity:1;fill-rule:nonzero;stroke:none"
             id="path154"
             inkscape:connector-curvature="0" /></g><g
           id="g156"
           transform="translate(216.6058,123.1086)"><path
             d="m 0,0 h 36.285 2.207 c 4.086,0 6.129,-1.418 6.129,-4.25 0,-2.235 -1.091,-3.706 -3.269,-4.413 -1.798,-0.6 -2.848,-0.968 -3.146,-1.103 -0.298,-0.135 -0.613,-0.449 -0.94,-0.94 -0.654,-0.87 -0.981,-2.259 -0.981,-4.168 v -81.805 c 0,-1.908 0.327,-3.298 0.981,-4.168 0.327,-0.49 0.642,-0.805 0.94,-0.94 0.298,-0.135 1.348,-0.502 3.146,-1.103 2.178,-0.707 3.269,-2.178 3.269,-4.413 0,-2.832 -2.043,-4.25 -6.129,-4.25 H 36.285 -0.082 -2.779 c -2.398,0 -4.208,0.368 -5.434,1.103 -1.226,0.736 -1.839,1.839 -1.839,3.31 0,2.399 1.308,3.894 3.923,4.495 2.125,0.544 3.379,0.887 3.759,1.022 0.38,0.134 0.764,0.449 1.144,0.939 0.817,0.981 1.226,2.534 1.226,4.659 z m -61.783,-37.593 8.663,-24.68 v -24.599 c 0,-2.505 0.094,-4.303 0.286,-5.394 0.192,-1.091 0.613,-2.288 1.266,-3.596 1.145,-2.398 2.726,-4.196 4.74,-5.394 l 3.024,-1.961 c 2.072,-1.254 3.106,-2.644 3.106,-4.168 0,-2.778 -2.043,-4.168 -6.13,-4.168 H -67.34 c -4.086,0 -6.13,1.361 -6.13,4.086 0,0.871 0.176,1.541 0.532,2.003 0.355,0.461 1.05,0.993 2.084,1.593 6.047,3.269 9.071,8.937 9.071,16.999 z M -30.074,0 l 16.099,-45.847 7.11,24.762 v -27.132 l -18.878,-63.336 h -4.331 l -31.709,94.064 c -1.091,3.159 -2.235,5.284 -3.432,6.375 -0.707,0.706 -1.933,1.225 -3.678,1.552 -3.543,0.764 -5.312,2.452 -5.312,5.067 0,1.418 0.503,2.521 1.512,3.31 1.009,0.789 2.464,1.185 4.372,1.185 z"
             style="fill:#1d1d1b;fill-opacity:1;fill-rule:nonzero;stroke:none"
             id="path158"
             inkscape:connector-curvature="0" /></g><g
           id="g160"
           transform="translate(330.5,123.1086)"><path
             d="m 0,0 h 32.935 l 22.719,-96.025 c 0.437,-1.688 0.927,-3.188 1.471,-4.495 0.49,-1.034 1.581,-1.88 3.269,-2.534 1.418,-0.6 2.398,-1.197 2.942,-1.797 0.543,-0.601 0.817,-1.418 0.817,-2.452 0,-2.832 -2.125,-4.25 -6.374,-4.25 h -40.78 c -1.635,0 -2.943,0.397 -3.923,1.185 -0.981,0.789 -1.471,1.839 -1.471,3.147 0,1.091 0.216,1.908 0.654,2.451 0.437,0.544 1.417,1.226 2.942,2.043 1.091,0.544 1.851,1.144 2.288,1.798 0.437,0.654 0.654,1.471 0.654,2.452 0,0.928 -0.082,1.745 -0.246,2.452 l -2.615,11.85 H -7.519 l 2.207,9.725 H 12.994 L -2.043,-8.009 Z m -5.639,-20.758 4.168,-16.917 -14.465,-52.793 c -0.437,-1.524 -0.654,-2.942 -0.654,-4.25 0,-3.432 1.606,-5.884 4.822,-7.355 l 2.86,-1.307 c 1.798,-0.818 2.697,-2.178 2.697,-4.087 0,-2.725 -1.99,-4.086 -5.966,-4.086 h -20.758 c -2.014,0 -3.608,0.421 -4.78,1.267 -1.173,0.846 -1.758,2.002 -1.758,3.473 0,1.582 1.198,2.889 3.596,3.923 2.235,0.981 3.882,1.867 4.945,2.656 1.062,0.789 2.084,1.867 3.064,3.228 1.524,2.235 2.779,5.202 3.76,8.908 z"
             style="fill:#1d1d1b;fill-opacity:1;fill-rule:nonzero;stroke:none"
             id="path162"
             inkscape:connector-curvature="0" /></g><g
           id="g164"
           transform="translate(514.1821,60.6717)"><path
             d="m 0,0 -8.663,14.629 v 22.637 c 0,4.577 -0.666,8.078 -2.002,10.501 -1.336,2.424 -3.69,4.508 -7.069,6.252 -1.144,0.544 -1.933,1.132 -2.37,1.757 -0.437,0.626 -0.654,1.431 -0.654,2.411 0,1.471 0.478,2.546 1.43,3.228 0.952,0.683 2.493,1.022 4.618,1.022 H 5.721 c 2.778,0 4.605,-0.437 5.475,-1.308 0.928,-0.87 1.389,-1.908 1.389,-3.105 0,-1.144 -0.257,-2.002 -0.776,-2.574 C 11.29,54.877 10.052,54.101 8.091,53.12 5.202,51.649 3.024,49.39 1.553,46.337 0.519,44.102 0,41.078 0,37.266 Z M -43.477,62.437 0,-13.076 v -36.04 h -22.311 l -55.49,95.617 c -1.197,2.071 -2.178,3.514 -2.942,4.331 -0.764,0.817 -1.745,1.418 -2.942,1.798 l -3.106,1.144 c -0.817,0.274 -1.471,0.764 -1.961,1.471 -0.49,0.707 -0.735,1.5 -0.735,2.37 0,0.928 0.245,1.786 0.735,2.574 0.49,0.789 1.144,1.349 1.961,1.676 0.928,0.38 3.433,0.572 7.519,0.572 z m -34.242,-28.685 8.663,-14.384 v -43.803 c 0,-3.813 0.641,-6.947 1.92,-9.399 1.279,-2.451 3.31,-4.466 6.088,-6.047 l 2.452,-1.389 c 1.418,-0.818 2.125,-2.044 2.125,-3.678 0,-1.254 -0.519,-2.288 -1.553,-3.106 -0.87,-0.706 -2.668,-1.062 -5.394,-1.062 h -18.878 c -4.956,0 -7.437,1.418 -7.437,4.25 0,0.98 0.258,1.757 0.777,2.329 0.519,0.572 1.647,1.348 3.391,2.329 5.231,2.889 7.846,8.144 7.846,15.773 z"
             style="fill:#1d1d1b;fill-opacity:1;fill-rule:nonzero;stroke:none"
             id="path166"
             inkscape:connector-curvature="0" /></g><g
           id="g168"
           transform="translate(611.4863,54.2973)"><path
             d="m 0,0 v 8.744 c 2.341,0.544 3.992,1.116 4.944,1.717 0.952,0.6 1.786,1.524 2.493,2.778 1.144,2.125 1.716,4.985 1.716,8.581 v 26.152 c 0,2.562 -0.192,4.466 -0.572,5.72 -0.38,1.255 -1.144,2.399 -2.288,3.433 -1.582,1.524 -3.706,2.48 -6.375,2.86 v 8.826 c 11.225,0 19.504,-1.062 24.844,-3.187 6.158,-2.452 11.033,-6.211 14.629,-11.278 3.649,-5.177 5.475,-11.523 5.475,-19.041 0,-8.389 -1.851,-15.254 -5.557,-20.595 C 35.603,9.427 30.43,5.529 23.782,3.024 18.278,1.009 10.35,0 0,0 m -6.946,68.811 v -96.025 c 0,-2.125 0.408,-3.649 1.225,-4.577 0.438,-0.543 0.846,-0.886 1.226,-1.021 0.38,-0.135 1.635,-0.478 3.76,-1.022 2.615,-0.6 3.922,-2.096 3.922,-4.494 0,-1.418 -0.707,-2.562 -2.125,-3.433 -1.033,-0.654 -2.75,-0.98 -5.148,-0.98 h -2.779 -36.449 -2.124 c -1.962,0 -3.474,0.367 -4.536,1.103 -1.062,0.735 -1.594,1.785 -1.594,3.146 0,2.235 1.091,3.706 3.269,4.413 1.798,0.601 2.848,0.969 3.147,1.104 0.298,0.134 0.613,0.449 0.94,0.939 0.653,0.871 0.98,2.26 0.98,4.168 v 81.806 c 0,1.908 -0.327,3.297 -0.98,4.168 -0.327,0.49 -0.642,0.805 -0.94,0.939 -0.299,0.135 -1.349,0.503 -3.147,1.104 -2.178,0.707 -3.269,2.178 -3.269,4.413 0,1.36 0.532,2.411 1.594,3.146 1.062,0.736 2.574,1.103 4.536,1.103 h 2.124 z"
             style="fill:#1d1d1b;fill-opacity:1;fill-rule:nonzero;stroke:none"
             id="path170"
             inkscape:connector-curvature="0" /></g><g
           id="g172"
           transform="translate(753.0807,70.4785)"><path
             d="m 0,0 -4.576,10.706 8.58,19.205 c 0.707,1.634 1.063,3.869 1.063,6.701 0,3.159 -1.745,5.423 -5.23,6.783 -1.909,0.764 -3.147,1.43 -3.719,2.002 -0.572,0.573 -0.858,1.459 -0.858,2.657 0,1.471 0.49,2.586 1.471,3.35 0.654,0.491 1.389,0.817 2.207,0.981 0.817,0.163 2.235,0.245 4.249,0.245 h 20.186 c 3.812,0 5.721,-1.524 5.721,-4.576 0,-1.092 -0.258,-1.933 -0.777,-2.534 -0.519,-0.601 -1.512,-1.226 -2.983,-1.88 -2.668,-1.197 -4.576,-2.398 -5.72,-3.595 -1.635,-1.745 -2.995,-3.731 -4.086,-5.966 l -1.88,-4.168 z m -3.187,-7.764 v -35.631 c 0,-2.125 0.408,-3.649 1.226,-4.577 0.437,-0.543 0.846,-0.886 1.226,-1.021 0.38,-0.135 1.634,-0.478 3.759,-1.022 2.615,-0.601 3.923,-2.096 3.923,-4.495 0,-1.581 -0.736,-2.778 -2.207,-3.596 -0.87,-0.543 -2.562,-0.817 -5.067,-0.817 h -2.778 -36.449 -2.697 c -2.452,0 -4.168,0.327 -5.149,0.981 -1.418,0.87 -2.125,2.014 -2.125,3.432 0,2.399 1.308,3.894 3.923,4.495 2.125,0.544 3.379,0.887 3.76,1.022 0.38,0.135 0.764,0.478 1.144,1.021 0.817,0.928 1.225,2.452 1.225,4.577 v 27.622 L -62.6,39.391 c -0.871,2.071 -2.097,3.567 -3.678,4.495 -1.471,0.927 -2.411,1.663 -2.819,2.206 -0.409,0.544 -0.613,1.308 -0.613,2.288 0,2.832 2.071,4.25 6.211,4.25 h 40.044 c 2.125,0 3.596,-0.245 4.413,-0.735 1.361,-0.871 2.044,-2.015 2.044,-3.433 0,-1.745 -0.789,-3.105 -2.37,-4.086 l -2.37,-1.471 c -0.928,-0.601 -1.39,-1.5 -1.39,-2.697 0,-1.361 0.299,-2.697 0.899,-4.004 z"
             style="fill:#1d1d1b;fill-opacity:1;fill-rule:nonzero;stroke:none"
             id="path174"
             inkscape:connector-curvature="0" /></g></g></g></g></svg>