<?xml version="1.0" encoding="UTF-8" standalone="no"?>
<!-- Created with Inkscape (http://www.inkscape.org/) -->

<svg
   xmlns:dc="http://purl.org/dc/elements/1.1/"
   xmlns:cc="http://creativecommons.org/ns#"
   xmlns:rdf="http://www.w3.org/1999/02/22-rdf-syntax-ns#"
   xmlns:svg="http://www.w3.org/2000/svg"
   xmlns="http://www.w3.org/2000/svg"
   xmlns:sodipodi="http://sodipodi.sourceforge.net/DTD/sodipodi-0.dtd"
   xmlns:inkscape="http://www.inkscape.org/namespaces/inkscape"
   version="1.1"
   id="svg348"
   xml:space="preserve"
   width="1066.6667"
   height="1066.6667"
   viewBox="0 0 1066.6667 1066.6667"
   sodipodi:docname="smapbook.svg"
   inkscape:version="0.92.1 r15371"><metadata
     id="metadata354"><rdf:RDF><cc:Work
         rdf:about=""><dc:format>image/svg+xml</dc:format><dc:type
           rdf:resource="http://purl.org/dc/dcmitype/StillImage" /><dc:title></dc:title></cc:Work></rdf:RDF></metadata><defs
     id="defs352"><clipPath
       clipPathUnits="userSpaceOnUse"
       id="clipPath364"><path
         d="M 0,800 H 800 V 0 H 0 Z"
         id="path362"
         inkscape:connector-curvature="0" /></clipPath><clipPath
       clipPathUnits="userSpaceOnUse"
       id="clipPath408"><path
         d="M 79.3774,685.362 H 718.602 V 398.012 H 79.3774 Z"
         id="path406"
         inkscape:connector-curvature="0" /></clipPath></defs><sodipodi:namedview
     pagecolor="#ffffff"
     bordercolor="#666666"
     borderopacity="1"
     objecttolerance="10"
     gridtolerance="10"
     guidetolerance="10"
     inkscape:pageopacity="0"
     inkscape:pageshadow="2"
     inkscape:window-width="640"
     inkscape:window-height="480"
     id="namedview350"
     showgrid="false"
     inkscape:zoom="0.22124998"
     inkscape:cx="533.33337"
     inkscape:cy="533.33337"
     inkscape:window-x="0"
     inkscape:window-y="0"
     inkscape:window-maximized="0"
     inkscape:current-layer="g356" /><g
     id="g356"
     inkscape:groupmode="layer"
     inkscape:label="logos"
     transform="matrix(1.3333333,0,0,-1.3333333,0,1066.6667)"><g
       id="g358"><g
         id="g360"
         clip-path="url(#clipPath364)"><text
           transform="matrix(1,0,0,-1,19.4883,30.4492)"
           style="font-variant:normal;font-weight:normal;font-stretch:normal;font-size:122.95899963px;font-family:Stencil;-inkscape-font-specification:Stencil;writing-mode:lr-tb;fill:#1d1d1b;fill-opacity:1;fill-rule:nonzero;stroke:none"
           id="text368"><tspan
             x="0 85.825378 199.07062 292.15057 387.32086 486.54877 581.47308 676.39746"
             y="0"
             sodipodi:role="line"
             id="tspan366">smapbook</tspan></text>
<g
           id="g370"
           transform="translate(720.8434,705)"><path
             d="m 0,0 h -642 v -458 h 282.209 c 5.263,-11 21.382,-18.984 40.471,-18.984 19.088,0 35.207,7.984 40.47,18.984 H 0 Z"
             style="fill:#612e86;fill-opacity:1;fill-rule:nonzero;stroke:none"
             id="path372"
             inkscape:connector-curvature="0" /></g><g
           id="g374"
           transform="translate(685.8434,335.8599)"><path
             d="m 0,0 -569.752,0.436 0.103,-57.544 L 0,-57.287 Z"
             style="fill:#cdcbca;fill-opacity:1;fill-rule:nonzero;stroke:none"
             id="path376"
             inkscape:connector-curvature="0" /></g><g
           id="g378"
           transform="translate(139.8435,329.6798)"><path
             d="m 0,0 c 183,0 260,-45.967 260,-45.967 v 393.608 c 0,0 -77,45.963 -260,45.963 z"
             style="fill:#e5e3e3;fill-opacity:1;fill-rule:nonzero;stroke:none"
             id="path380"
             inkscape:connector-curvature="0" /></g><g
           id="g382"
           transform="translate(659.8434,329.6798)"><path
             d="m 0,0 c -184,0 -260,-45.967 -260,-45.967 v 393.608 c 0,0 76,45.963 260,45.963 z"
             style="fill:#f1eff0;fill-opacity:1;fill-rule:nonzero;stroke:none"
             id="path384"
             inkscape:connector-curvature="0" /></g><g
           id="g386"
           transform="translate(515.6931,358.2709)"><path
             d="m 0,0 29.15,-26.003 v 382.804 c -19,-2.454 -34,-5.282 -46,-8.284 V -15.645 Z"
             style="fill:#e5e3e3;fill-opacity:1;fill-rule:nonzero;stroke:none"
             id="path388"
             inkscape:connector-curvature="0" /></g><g
           id="g390"
           transform="translate(515.1984,363.3434)"><path
             d="m 0,0 25.645,-20.718 v 377.627 c -19,-2.455 -34,-5.281 -50,-8.287 v -369.34 z"
             style="fill:#e62c35;fill-opacity:1;fill-rule:nonzero;stroke:none"
             id="path392"
             inkscape:connector-curvature="0" /></g><g
           id="g394"
           transform="translate(143.2175,723.2841)"><path
             d="m 0,0 -27.107,-41.917 0.869,-402.928 26.563,51.241 z"
             style="fill:#f1eff0;fill-opacity:1;fill-rule:nonzero;stroke:none"
             id="path396"
             inkscape:connector-curvature="0" /></g><g
           id="g398"
           transform="translate(659.4503,723.262)"><path
             d="m 0,0 26.393,-46.587 v -398.042 l -26.494,51.047 z"
             style="fill:#e5e3e3;fill-opacity:1;fill-rule:nonzero;stroke:none"
             id="path400"
             inkscape:connector-curvature="0" /></g><g
           id="g402"><g
             id="g404" /><g
             id="g464"><g
               clip-path="url(#clipPath408)"
               id="g462"><g
                 transform="translate(581.9145,531.695)"
                 id="g412"><path
                   d="m 0,0 c 7.837,0 14.172,-6.172 14.172,-13.878 0,-7.641 -6.335,-13.877 -14.172,-13.877 -7.772,0 -14.139,6.236 -14.139,13.877 C -14.139,-6.172 -7.772,0 0,0"
                   style="fill:#ffffff;fill-opacity:1;fill-rule:nonzero;stroke:none"
                   id="path410"
                   inkscape:connector-curvature="0" /></g><g
                 transform="translate(617.768,536.691)"
                 id="g416"><path
                   d="m 0,0 c 0,33.372 -27.755,60.409 -61.911,60.409 -34.156,0 -61.911,-27.037 -61.911,-60.409 0,-33.372 27.755,-60.409 61.911,-60.409 C -27.755,-60.409 0,-33.372 0,0 m -49.992,-106.026 c -65.177,0 -118.206,49.797 -118.206,111.022 0,61.225 53.029,111.022 118.206,111.022 65.143,0 118.172,-49.797 118.172,-111.022 0,-61.225 -53.029,-111.022 -118.172,-111.022"
                   style="fill:#ffffff;fill-opacity:1;fill-rule:nonzero;stroke:none"
                   id="path414"
                   inkscape:connector-curvature="0" /></g><g
                 transform="translate(527.3505,536.691)"
                 id="g420"><path
                   d="m 0,0 c -10.906,0 -19.69,8.49 -19.69,18.972 0,10.416 8.784,18.939 19.69,18.939 10.841,0 19.657,-8.523 19.657,-18.939 C 19.657,8.49 10.841,0 0,0"
                   style="fill:#ffffff;fill-opacity:1;fill-rule:nonzero;stroke:none"
                   id="path418"
                   inkscape:connector-curvature="0" /></g><g
                 transform="translate(555.857,476.282)"
                 id="g424"><path
                   d="m 0,0 c -34.156,0 -61.911,27.037 -61.911,60.409 0,33.372 27.755,60.409 61.911,60.409 34.156,0 61.911,-27.037 61.911,-60.409 C 61.911,27.037 34.156,0 0,0 m -8.849,79.381 c 0,10.416 -8.817,18.939 -19.657,18.939 -10.907,0 -19.691,-8.523 -19.691,-18.939 0,-10.482 8.784,-18.972 19.691,-18.972 10.84,0 19.657,8.49 19.657,18.972 M 40.229,41.535 c 0,7.706 -6.335,13.878 -14.172,13.878 -7.771,0 -14.138,-6.172 -14.138,-13.878 0,-7.641 6.367,-13.878 14.138,-13.878 7.837,0 14.172,6.237 14.172,13.878"
                   style="fill:#261f1f;fill-opacity:1;fill-rule:nonzero;stroke:none"
                   id="path422"
                   inkscape:connector-curvature="0" /></g><g
                 transform="translate(449.5699,541.687)"
                 id="g428"><path
                   d="m 0,0 c 0,-61.225 53.029,-111.022 118.206,-111.022 65.143,0 118.173,49.797 118.173,111.022 0,61.225 -53.03,111.022 -118.173,111.022 C 53.029,111.022 0,61.225 0,0 m 118.206,-143.675 c -76.442,0 -139.757,54.4 -149.553,124.671 1.338,-0.751 2.579,-1.666 3.69,-2.743 3.167,-3.07 7.249,-4.572 11.33,-4.572 4.278,0 8.555,1.666 11.756,4.996 6.269,6.466 6.073,16.817 -0.425,23.086 -7.869,7.609 -17.208,11.919 -26.743,14.139 8.326,71.773 72.393,127.773 149.945,127.773 83.168,0 150.826,-64.458 150.826,-143.675 0,-79.217 -67.658,-143.675 -150.826,-143.675"
                   style="fill:#b91e1e;fill-opacity:1;fill-rule:nonzero;stroke:none"
                   id="path426"
                   inkscape:connector-curvature="0" /></g><g
                 transform="translate(433.2432,515.3682)"
                 id="g432"><path
                   d="m 0,0 c -4.082,0 -8.163,1.502 -11.331,4.572 -1.11,1.077 -2.351,1.991 -3.69,2.742 -0.849,6.237 -1.306,12.572 -1.306,19.005 0,5.388 0.327,10.677 0.915,15.902 C -5.878,40.001 3.461,35.69 11.331,28.082 17.829,21.813 18.025,11.461 11.755,4.996 8.555,1.665 4.278,0 0,0"
                   style="fill:#b91e1e;fill-opacity:1;fill-rule:nonzero;stroke:none"
                   id="path430"
                   inkscape:connector-curvature="0" /></g><g
                 transform="translate(418.2226,522.6826)"
                 id="g436"><path
                   d="m 0,0 c -10.482,6.172 -27.266,4.114 -38.303,1.502 0.719,5.747 1.111,11.592 1.111,17.502 0,5.388 -0.327,10.711 -0.947,15.968 10.873,1.992 24.522,2.971 37.747,-0.065 C -0.98,29.682 -1.306,24.392 -1.306,19.004 -1.306,12.572 -0.849,6.237 0,0"
                   style="fill:#b91e1e;fill-opacity:1;fill-rule:nonzero;stroke:none"
                   id="path434"
                   inkscape:connector-curvature="0" /></g><g
                 transform="translate(370.5158,521.4418)"
                 id="g440"><path
                   d="m 0,0 c -8.425,-3.2 -17.861,1.012 -21.061,9.437 -3.233,8.424 1.012,17.861 9.436,21.061 2.09,0.784 10.221,3.756 21.192,5.715 0.621,-5.257 0.947,-10.58 0.947,-15.968 0,-5.91 -0.391,-11.755 -1.11,-17.502 C 5.225,1.763 1.894,0.718 0,0"
                   style="fill:#b91e1e;fill-opacity:1;fill-rule:nonzero;stroke:none"
                   id="path438"
                   inkscape:connector-curvature="0" /></g><g
                 transform="translate(230.2038,398.0116)"
                 id="g444"><path
                   d="m 0,0 c -83.168,0 -150.826,64.458 -150.826,143.675 0,79.218 67.658,143.676 150.826,143.676 77.487,0 141.52,-55.968 149.879,-127.708 -10.971,-1.959 -19.102,-4.931 -21.192,-5.715 -8.424,-3.2 -12.669,-12.636 -9.436,-21.061 3.2,-8.425 12.636,-12.637 21.061,-9.437 1.894,0.719 5.225,1.763 9.404,2.743 C 140.639,55.184 76.964,0 0,0 m 118.173,143.675 c 0,61.226 -53.029,111.022 -118.173,111.022 -65.176,0 -118.173,-49.796 -118.173,-111.022 0,-61.225 52.997,-111.021 118.173,-111.021 65.144,0 118.173,49.796 118.173,111.021"
                   style="fill:#b91e1e;fill-opacity:1;fill-rule:nonzero;stroke:none"
                   id="path442"
                   inkscape:connector-curvature="0" /></g><g
                 transform="translate(256.2613,508.9355)"
                 id="g448"><path
                   d="m 0,0 c -7.772,0 -14.106,6.237 -14.106,13.878 0,7.641 6.334,13.877 14.106,13.877 7.837,0 14.172,-6.236 14.172,-13.877 C 14.172,6.237 7.837,0 0,0"
                   style="fill:#ffffff;fill-opacity:1;fill-rule:nonzero;stroke:none"
                   id="path446"
                   inkscape:connector-curvature="0" /></g><g
                 transform="translate(230.2038,430.6651)"
                 id="g452"><path
                   d="m 0,0 c -65.176,0 -118.173,49.797 -118.173,111.022 0,61.225 52.997,111.022 118.173,111.022 65.144,0 118.173,-49.797 118.173,-111.022 C 118.173,49.797 65.144,0 0,0 m 61.911,111.022 c 0,33.372 -27.69,60.409 -61.911,60.409 -34.156,0 -61.911,-27.037 -61.911,-60.409 0,-33.372 27.755,-60.409 61.911,-60.409 34.221,0 61.911,27.037 61.911,60.409"
                   style="fill:#ffffff;fill-opacity:1;fill-rule:nonzero;stroke:none"
                   id="path450"
                   inkscape:connector-curvature="0" /></g><g
                 transform="translate(201.6974,579.5977)"
                 id="g456"><path
                   d="m 0,0 c 10.841,0 19.657,-8.523 19.657,-19.004 0,-10.417 -8.816,-18.907 -19.657,-18.907 -10.841,0 -19.69,8.49 -19.69,18.907 C -19.69,-8.523 -10.841,0 0,0"
                   style="fill:#ffffff;fill-opacity:1;fill-rule:nonzero;stroke:none"
                   id="path454"
                   inkscape:connector-curvature="0" /></g><g
                 transform="translate(270.4329,522.8132)"
                 id="g460"><path
                   d="m 0,0 c 0,7.641 -6.335,13.878 -14.172,13.878 -7.771,0 -14.106,-6.237 -14.106,-13.878 0,-7.641 6.335,-13.878 14.106,-13.878 C -6.335,-13.878 0,-7.641 0,0 m -40.229,79.283 c 34.221,0 61.911,-27.037 61.911,-60.409 0,-33.372 -27.69,-60.409 -61.911,-60.409 -34.156,0 -61.911,27.037 -61.911,60.409 0,33.372 27.755,60.409 61.911,60.409 M -49.078,37.78 c 0,10.482 -8.817,19.004 -19.658,19.004 -10.841,0 -19.69,-8.522 -19.69,-19.004 0,-10.416 8.849,-18.906 19.69,-18.906 10.841,0 19.658,8.49 19.658,18.906"
                   style="fill:#261f1f;fill-opacity:1;fill-rule:nonzero;stroke:none"
                   id="path458"
                   inkscape:connector-curvature="0" /></g></g></g></g><g
           id="g466"
           transform="translate(445.726,413.3091)"><path
             d="m 0,0 c 1.469,-19.829 -17.117,-37.051 -41.524,-38.473 -24.397,-1.42 -45.362,13.506 -46.818,33.33 z"
             style="fill:#261f1f;fill-opacity:1;fill-rule:nonzero;stroke:none"
             id="path468"
             inkscape:connector-curvature="0" /></g></g></g></g></svg>