<?xml version="1.0" encoding="UTF-8" standalone="no"?>
<!-- Created with Inkscape (http://www.inkscape.org/) -->

<svg
   xmlns:dc="http://purl.org/dc/elements/1.1/"
   xmlns:cc="http://creativecommons.org/ns#"
   xmlns:rdf="http://www.w3.org/1999/02/22-rdf-syntax-ns#"
   xmlns:svg="http://www.w3.org/2000/svg"
   xmlns="http://www.w3.org/2000/svg"
   xmlns:sodipodi="http://sodipodi.sourceforge.net/DTD/sodipodi-0.dtd"
   xmlns:inkscape="http://www.inkscape.org/namespaces/inkscape"
   version="1.1"
   id="svg470"
   xml:space="preserve"
   width="1066.6667"
   height="1066.6667"
   viewBox="0 0 1066.6667 1066.6667"
   sodipodi:docname="logos.svg"
   inkscape:version="0.92.1 r15371"><metadata
     id="metadata476"><rdf:RDF><cc:Work
         rdf:about=""><dc:format>image/svg+xml</dc:format><dc:type
           rdf:resource="http://purl.org/dc/dcmitype/StillImage" /><dc:title></dc:title></cc:Work></rdf:RDF></metadata><defs
     id="defs474"><clipPath
       clipPathUnits="userSpaceOnUse"
       id="clipPath486"><path
         d="M 0,800 H 800 V 0 H 0 Z"
         id="path484"
         inkscape:connector-curvature="0" /></clipPath><clipPath
       clipPathUnits="userSpaceOnUse"
       id="clipPath542"><path
         d="M 80.8099,725.649 H 717.747 V 439.327 H 80.8099 Z"
         id="path540"
         inkscape:connector-curvature="0" /></clipPath></defs><sodipodi:namedview
     pagecolor="#ffffff"
     bordercolor="#666666"
     borderopacity="1"
     objecttolerance="10"
     gridtolerance="10"
     guidetolerance="10"
     inkscape:pageopacity="0"
     inkscape:pageshadow="2"
     inkscape:window-width="640"
     inkscape:window-height="480"
     id="namedview472"
     showgrid="false"
     inkscape:zoom="0.22124998"
     inkscape:cx="533.33337"
     inkscape:cy="533.33337"
     inkscape:window-x="0"
     inkscape:window-y="0"
     inkscape:window-maximized="0"
     inkscape:current-layer="g478" /><g
     id="g478"
     inkscape:groupmode="layer"
     inkscape:label="logos"
     transform="matrix(1.3333333,0,0,-1.3333333,0,1066.6667)"><g
       id="g480"><g
         id="g482"
         clip-path="url(#clipPath486)"><text
           transform="matrix(1,0,0,-1,-840.5117,30.4492)"
           style="font-variant:normal;font-weight:normal;font-stretch:normal;font-size:122.95899963px;font-family:Stencil;-inkscape-font-specification:Stencil;writing-mode:lr-tb;fill:#1d1d1b;fill-opacity:1;fill-rule:nonzero;stroke:none"
           id="text490"><tspan
             x="0 85.825378 199.07062 292.15057 387.32086 486.54877 581.47308 676.39746"
             y="0"
             sodipodi:role="line"
             id="tspan488">smapbook</tspan></text>
<text
           transform="matrix(1,0,0,-0.95506454,29.4883,35.2734)"
           style="font-variant:normal;font-weight:normal;font-stretch:normal;font-size:109.16989899px;font-family:Stencil;-inkscape-font-specification:Stencil;writing-mode:lr-tb;fill:#1d1d1b;fill-opacity:1;fill-rule:nonzero;stroke:none"
           id="text494"><tspan
             x="0 76.200592 176.74606 259.3877 343.88519 426.63596 518.01117 602.29034 691.26379"
             y="0"
             sodipodi:role="line"
             id="tspan492">smapgroup</tspan></text>
<g
           id="g496"
           transform="translate(147.6049,464.5871)"><path
             d="m 0,0 c -42.751,42.751 -42.751,112.064 0,154.815 42.751,42.751 112.064,42.751 154.815,0 L 404.926,-95.296 250.111,-250.111 Z"
             style="fill:#f1eff0;fill-opacity:1;fill-rule:nonzero;stroke:none"
             id="path498"
             inkscape:connector-curvature="0" /></g><g
           id="g500"
           transform="translate(400.07,191.7498)"><path
             d="m 0,0 -262.651,262.651 c -48.297,48.297 -48.297,126.886 0,175.183 48.298,48.298 126.886,48.298 175.183,0 L 175.183,175.183 154.817,154.817 -107.834,417.468 c -37.067,37.066 -97.384,37.066 -134.45,0 -37.067,-37.067 -37.067,-97.384 0,-134.45 L 20.367,20.366 Z"
             style="fill:#e94c53;fill-opacity:1;fill-rule:nonzero;stroke:none"
             id="path502"
             inkscape:connector-curvature="0" /></g><g
           id="g504"
           transform="translate(524.4601,341.2202)"><path
             d="M 0,0 -106.909,106.909"
             style="fill:none;stroke:#cdcbca;stroke-width:5.046;stroke-linecap:butt;stroke-linejoin:miter;stroke-miterlimit:10;stroke-dasharray:none;stroke-opacity:1"
             id="path506"
             inkscape:connector-curvature="0" /></g><g
           id="g508"
           transform="translate(475.1235,291.8836)"><path
             d="M 0,0 -60.505,60.505"
             style="fill:none;stroke:#cdcbca;stroke-width:5.046;stroke-linecap:butt;stroke-linejoin:miter;stroke-miterlimit:10;stroke-dasharray:none;stroke-opacity:1"
             id="path510"
             inkscape:connector-curvature="0" /></g><g
           id="g512"
           transform="translate(425.7869,242.547)"><path
             d="M 0,0 -250.111,250.111"
             style="fill:none;stroke:#cdcbca;stroke-width:5.046;stroke-linecap:butt;stroke-linejoin:miter;stroke-miterlimit:10;stroke-dasharray:none;stroke-opacity:1"
             id="path514"
             inkscape:connector-curvature="0" /></g><g
           id="g516"
           transform="translate(497.7287,619.2744)"><path
             d="m 0,0 c 42.751,42.751 112.064,42.751 154.815,0 42.751,-42.751 42.751,-112.064 0,-154.815 l -250.111,-250.111 -154.815,154.815 z"
             style="fill:#f1eff0;fill-opacity:1;fill-rule:nonzero;stroke:none"
             id="path518"
             inkscape:connector-curvature="0" /></g><g
           id="g520"
           transform="translate(224.8919,366.8092)"><path
             d="m 0,0 262.651,262.651 c 48.297,48.298 126.886,48.298 175.183,0 48.298,-48.297 48.298,-126.886 0,-175.183 l -262.651,-262.651 -20.366,20.366 262.651,262.651 c 37.067,37.067 37.067,97.384 0,134.451 -37.067,37.066 -97.384,37.066 -134.451,0 L 20.366,-20.366 Z"
             style="fill:#f6cc5d;fill-opacity:1;fill-rule:nonzero;stroke:none"
             id="path522"
             inkscape:connector-curvature="0" /></g><g
           id="g524"
           transform="translate(374.3619,242.4195)"><path
             d="M 0,0 106.909,106.909"
             style="fill:none;stroke:#cdcbca;stroke-width:5.046;stroke-linecap:butt;stroke-linejoin:miter;stroke-miterlimit:10;stroke-dasharray:none;stroke-opacity:1"
             id="path526"
             inkscape:connector-curvature="0" /></g><g
           id="g528"
           transform="translate(325.0253,291.7561)"><path
             d="M 0,0 60.505,60.505"
             style="fill:none;stroke:#cdcbca;stroke-width:5.046;stroke-linecap:butt;stroke-linejoin:miter;stroke-miterlimit:10;stroke-dasharray:none;stroke-opacity:1"
             id="path530"
             inkscape:connector-curvature="0" /></g><g
           id="g532"
           transform="translate(275.6887,341.0927)"><path
             d="M 0,0 250.111,250.111"
             style="fill:none;stroke:#cdcbca;stroke-width:5.046;stroke-linecap:butt;stroke-linejoin:miter;stroke-miterlimit:10;stroke-dasharray:none;stroke-opacity:1"
             id="path534"
             inkscape:connector-curvature="0" /></g><g
           id="g536"><g
             id="g538" /><g
             id="g598"><g
               clip-path="url(#clipPath542)"
               id="g596"><g
                 transform="translate(685.2109,582.488)"
                 id="g546"><path
                   d="m 0,0 c 0,61.006 -52.84,110.625 -117.75,110.625 -64.943,0 -117.783,-49.619 -117.783,-110.625 0,-61.006 52.84,-110.625 117.783,-110.625 C -52.84,-110.625 0,-61.006 0,0 M -117.75,143.161 C -34.879,143.161 32.537,78.934 32.537,0 c 0,-78.934 -67.416,-143.161 -150.287,-143.161 -76.169,0 -139.257,54.206 -149.018,124.225 1.334,-0.749 2.57,-1.66 3.677,-2.733 3.156,-3.059 7.223,-4.556 11.29,-4.556 4.262,0 8.524,1.66 11.713,4.979 6.247,6.442 6.052,16.756 -0.423,23.003 -7.841,7.581 -17.114,11.876 -26.648,14.088 8.297,71.516 72.134,127.316 149.409,127.316"
                   style="fill:#b91e1e;fill-opacity:1;fill-rule:nonzero;stroke:none"
                   id="path544"
                   inkscape:connector-curvature="0" /></g><g
                 transform="translate(617.2743,577.5099)"
                 id="g550"><path
                   d="m 0,0 c 0,33.252 -27.656,60.193 -61.689,60.193 -34.034,0 -61.69,-26.941 -61.69,-60.193 0,-33.253 27.656,-60.193 61.69,-60.193 C -27.656,-60.193 0,-33.253 0,0 m -49.814,115.603 c 64.911,0 117.751,-49.619 117.751,-110.625 0,-61.006 -52.84,-110.625 -117.751,-110.625 -64.943,0 -117.782,49.619 -117.782,110.625 0,61.006 52.839,110.625 117.782,110.625"
                   style="fill:#ffffff;fill-opacity:1;fill-rule:nonzero;stroke:none"
                   id="path548"
                   inkscape:connector-curvature="0" /></g><g
                 transform="translate(546.7674,596.4138)"
                 id="g554"><path
                   d="m 0,0 c 0,10.379 -8.785,18.871 -19.587,18.871 -10.867,0 -19.62,-8.492 -19.62,-18.871 0,-10.444 8.753,-18.904 19.62,-18.904 C -8.785,-18.904 0,-10.444 0,0 m 48.903,-37.71 c 0,7.679 -6.313,13.828 -14.121,13.828 -7.744,0 -14.089,-6.149 -14.089,-13.828 0,-7.614 6.345,-13.828 14.089,-13.828 7.808,0 14.121,6.214 14.121,13.828 M 8.817,41.289 c 34.034,0 61.69,-26.94 61.69,-60.193 0,-33.252 -27.656,-60.193 -61.69,-60.193 -34.033,0 -61.689,26.941 -61.689,60.193 0,33.253 27.656,60.193 61.689,60.193"
                   style="fill:#261f1f;fill-opacity:1;fill-rule:nonzero;stroke:none"
                   id="path552"
                   inkscape:connector-curvature="0" /></g><g
                 transform="translate(581.5491,572.5318)"
                 id="g558"><path
                   d="m 0,0 c 7.809,0 14.121,-6.149 14.121,-13.828 0,-7.614 -6.312,-13.828 -14.121,-13.828 -7.744,0 -14.088,6.214 -14.088,13.828 C -14.088,-6.149 -7.744,0 0,0"
                   style="fill:#ffffff;fill-opacity:1;fill-rule:nonzero;stroke:none"
                   id="path556"
                   inkscape:connector-curvature="0" /></g><g
                 transform="translate(527.1803,615.285)"
                 id="g562"><path
                   d="m 0,0 c 10.802,0 19.587,-8.492 19.587,-18.871 0,-10.444 -8.785,-18.904 -19.587,-18.904 -10.867,0 -19.62,8.46 -19.62,18.904 C -19.62,-8.492 -10.867,0 0,0"
                   style="fill:#ffffff;fill-opacity:1;fill-rule:nonzero;stroke:none"
                   id="path560"
                   inkscape:connector-curvature="0" /></g><g
                 transform="translate(444.6999,584.245)"
                 id="g566"><path
                   d="m 0,0 c 6.475,-6.247 6.67,-16.561 0.423,-23.003 -3.189,-3.319 -7.451,-4.979 -11.713,-4.979 -4.067,0 -8.134,1.497 -11.29,4.556 -1.107,1.073 -2.343,1.984 -3.677,2.733 -0.846,6.214 -1.302,12.526 -1.302,18.936 0,5.369 0.326,10.64 0.911,15.845 C -17.114,11.876 -7.841,7.581 0,0"
                   style="fill:#b91e1e;fill-opacity:1;fill-rule:nonzero;stroke:none"
                   id="path564"
                   inkscape:connector-curvature="0" /></g><g
                 transform="translate(418.0523,598.3334)"
                 id="g570"><path
                   d="m 0,0 c -0.586,-5.206 -0.911,-10.477 -0.911,-15.845 0,-6.41 0.455,-12.722 1.301,-18.937 -10.444,6.15 -27.168,4.1 -38.165,1.497 0.716,5.726 1.106,11.551 1.106,17.44 0,5.368 -0.325,10.672 -0.943,15.91 C -26.778,2.05 -13.177,3.026 0,0"
                   style="fill:#b91e1e;fill-opacity:1;fill-rule:nonzero;stroke:none"
                   id="path568"
                   inkscape:connector-curvature="0" /></g><g
                 transform="translate(380.44,598.3985)"
                 id="g574"><path
                   d="m 0,0 c 0.618,-5.238 0.944,-10.542 0.944,-15.91 0,-5.89 -0.391,-11.714 -1.107,-17.44 -4.164,-0.976 -7.483,-2.017 -9.37,-2.733 -8.395,-3.189 -17.798,1.008 -20.986,9.403 -3.222,8.394 1.008,17.797 9.403,20.986 C -19.034,-4.913 -10.932,-1.952 0,0"
                   style="fill:#b91e1e;fill-opacity:1;fill-rule:nonzero;stroke:none"
                   id="path572"
                   inkscape:connector-curvature="0" /></g><g
                 transform="translate(348.8469,582.488)"
                 id="g578"><path
                   d="M 0,0 C 0,61.006 -52.84,110.625 -117.75,110.625 -182.693,110.625 -235.5,61.006 -235.5,0 c 0,-61.006 52.807,-110.625 117.75,-110.625 C -52.84,-110.625 0,-61.006 0,0 m 22.06,-20.173 c 1.887,0.716 5.206,1.757 9.37,2.733 -9.045,-70.734 -72.491,-125.721 -149.18,-125.721 -82.871,0 -150.287,64.227 -150.287,143.161 0,78.934 67.416,143.161 150.287,143.161 77.209,0 141.014,-55.768 149.343,-127.251 C 20.661,13.958 12.559,10.997 10.477,10.216 2.082,7.028 -2.147,-2.375 1.074,-10.77 4.262,-19.164 13.665,-23.361 22.06,-20.173"
                   style="fill:#b91e1e;fill-opacity:1;fill-rule:nonzero;stroke:none"
                   id="path576"
                   inkscape:connector-curvature="0" /></g><g
                 transform="translate(292.7862,582.488)"
                 id="g582"><path
                   d="m 0,0 c 0,33.253 -27.591,60.193 -61.69,60.193 -34.033,0 -61.689,-26.94 -61.689,-60.193 0,-33.252 27.656,-60.193 61.689,-60.193 C -27.591,-60.193 0,-33.252 0,0 M -61.69,110.625 C 3.221,110.625 56.061,61.006 56.061,0 c 0,-61.006 -52.84,-110.625 -117.751,-110.625 -64.943,0 -117.75,49.619 -117.75,110.625 0,61.006 52.807,110.625 117.75,110.625"
                   style="fill:#ffffff;fill-opacity:1;fill-rule:nonzero;stroke:none"
                   id="path580"
                   inkscape:connector-curvature="0" /></g><g
                 transform="translate(222.2793,601.3268)"
                 id="g586"><path
                   d="m 0,0 c 0,10.444 -8.785,18.936 -19.587,18.936 -10.802,0 -19.62,-8.492 -19.62,-18.936 0,-10.379 8.818,-18.839 19.62,-18.839 C -8.785,-18.839 0,-10.379 0,0 m 48.903,-37.645 c 0,7.614 -6.313,13.828 -14.121,13.828 -7.744,0 -14.056,-6.214 -14.056,-13.828 0,-7.613 6.312,-13.828 14.056,-13.828 7.808,0 14.121,6.215 14.121,13.828 M 8.817,41.354 c 34.099,0 61.69,-26.94 61.69,-60.193 0,-33.252 -27.591,-60.193 -61.69,-60.193 -34.033,0 -61.689,26.941 -61.689,60.193 0,33.253 27.656,60.193 61.689,60.193"
                   style="fill:#261f1f;fill-opacity:1;fill-rule:nonzero;stroke:none"
                   id="path584"
                   inkscape:connector-curvature="0" /></g><g
                 transform="translate(257.0609,577.5099)"
                 id="g590"><path
                   d="m 0,0 c 7.809,0 14.121,-6.215 14.121,-13.828 0,-7.614 -6.312,-13.828 -14.121,-13.828 -7.744,0 -14.056,6.214 -14.056,13.828 C -14.056,-6.215 -7.744,0 0,0"
                   style="fill:#ffffff;fill-opacity:1;fill-rule:nonzero;stroke:none"
                   id="path588"
                   inkscape:connector-curvature="0" /></g><g
                 transform="translate(202.6922,620.2631)"
                 id="g594"><path
                   d="m 0,0 c 10.802,0 19.587,-8.492 19.587,-18.936 0,-10.38 -8.785,-18.839 -19.587,-18.839 -10.802,0 -19.62,8.459 -19.62,18.839 C -19.62,-8.492 -10.802,0 0,0"
                   style="fill:#ffffff;fill-opacity:1;fill-rule:nonzero;stroke:none"
                   id="path592"
                   inkscape:connector-curvature="0" /></g></g></g></g><g
           id="g600"
           transform="translate(443.2342,374.04)"><path
             d="m 0,0 c 1.464,-19.758 -17.056,-36.919 -41.375,-38.335 -24.311,-1.415 -45.2,13.457 -46.651,33.21 z"
             style="fill:#261f1f;fill-opacity:1;fill-rule:nonzero;stroke:none"
             id="path602"
             inkscape:connector-curvature="0" /></g></g></g></g></svg>