<?xml version="1.0" encoding="UTF-8" standalone="no"?>
<!-- Created with Inkscape (http://www.inkscape.org/) -->

<svg
   xmlns:dc="http://purl.org/dc/elements/1.1/"
   xmlns:cc="http://creativecommons.org/ns#"
   xmlns:rdf="http://www.w3.org/1999/02/22-rdf-syntax-ns#"
   xmlns:svg="http://www.w3.org/2000/svg"
   xmlns="http://www.w3.org/2000/svg"
   xmlns:sodipodi="http://sodipodi.sourceforge.net/DTD/sodipodi-0.dtd"
   xmlns:inkscape="http://www.inkscape.org/namespaces/inkscape"
   version="1.1"
   id="svg604"
   xml:space="preserve"
   width="1066.6667"
   height="1066.6667"
   viewBox="0 0 1066.6667 1066.6667"
   sodipodi:docname="tutosmanpy.svg"
   inkscape:version="0.92.1 r15371"><metadata
     id="metadata610"><rdf:RDF><cc:Work
         rdf:about=""><dc:format>image/svg+xml</dc:format><dc:type
           rdf:resource="http://purl.org/dc/dcmitype/StillImage" /><dc:title></dc:title></cc:Work></rdf:RDF></metadata><defs
     id="defs608"><clipPath
       clipPathUnits="userSpaceOnUse"
       id="clipPath624"><path
         d="M 0,800 H 800 V 0 H 0 Z"
         id="path622"
         inkscape:connector-curvature="0" /></clipPath><clipPath
       clipPathUnits="userSpaceOnUse"
       id="clipPath692"><path
         d="M 173.869,612.091 H 635.528 V 404.562 H 173.869 Z"
         id="path690"
         inkscape:connector-curvature="0" /></clipPath></defs><sodipodi:namedview
     pagecolor="#ffffff"
     bordercolor="#666666"
     borderopacity="1"
     objecttolerance="10"
     gridtolerance="10"
     guidetolerance="10"
     inkscape:pageopacity="0"
     inkscape:pageshadow="2"
     inkscape:window-width="640"
     inkscape:window-height="480"
     id="namedview606"
     showgrid="false"
     inkscape:zoom="0.22124998"
     inkscape:cx="533.33337"
     inkscape:cy="533.33337"
     inkscape:window-x="0"
     inkscape:window-y="0"
     inkscape:window-maximized="0"
     inkscape:current-layer="g612" /><g
     id="g612"
     inkscape:groupmode="layer"
     inkscape:label="logos"
     transform="matrix(1.3333333,0,0,-1.3333333,0,1066.6667)"><text
       transform="matrix(1,0,0,-0.95506454,29.4883,35.2734)"
       style="font-variant:normal;font-weight:normal;font-stretch:normal;font-size:109.16989899px;font-family:Stencil;-inkscape-font-specification:Stencil;writing-mode:lr-tb;fill:#1d1d1b;fill-opacity:1;fill-rule:nonzero;stroke:none"
       id="text616"><tspan
         x="0 79.912369 168.88583 248.7982 333.07736 409.27795 509.82343 592.46503 676.96252"
         y="0"
         sodipodi:role="line"
         id="tspan614">tutosmapy</tspan></text>
<g
       id="g618"><g
         id="g620"
         clip-path="url(#clipPath624)"><g
           id="g626"
           transform="translate(107.2656,548.4746)"><path
             d="m 0,0 c 0,50.341 40.809,91.149 91.149,91.149 50.341,0 91.15,-40.808 91.15,-91.149 V -294.512 H 0 Z"
             style="fill:#f1eff0;fill-opacity:1;fill-rule:nonzero;stroke:none"
             id="path628"
             inkscape:connector-curvature="0" /></g><g
           id="g630"
           transform="translate(95.2714,239.1964)"><path
             d="m 0,0 v 309.278 c 0,56.872 46.27,103.142 103.141,103.142 56.872,0 103.142,-46.27 103.142,-103.142 V 0 h -23.982 v 309.278 c 0,43.647 -35.513,79.16 -79.16,79.16 -43.647,0 -79.159,-35.513 -79.159,-79.16 L 23.982,0 Z"
             style="fill:#238da0;fill-opacity:1;fill-rule:nonzero;stroke:none"
             id="path632"
             inkscape:connector-curvature="0" /></g><g
           id="g634"
           transform="translate(256.51,253.9628)"><path
             d="M 0,0 V 125.888"
             style="fill:none;stroke:#cdcbca;stroke-width:5.796;stroke-linecap:butt;stroke-linejoin:miter;stroke-miterlimit:10;stroke-dasharray:none;stroke-opacity:1"
             id="path636"
             inkscape:connector-curvature="0" /></g><g
           id="g638"
           transform="translate(198.4147,253.9628)"><path
             d="M 0,0 V 71.246"
             style="fill:none;stroke:#cdcbca;stroke-width:5.796;stroke-linecap:butt;stroke-linejoin:miter;stroke-miterlimit:10;stroke-dasharray:none;stroke-opacity:1"
             id="path640"
             inkscape:connector-curvature="0" /></g><g
           id="g642"
           transform="translate(140.3197,253.9628)"><path
             d="M 0,0 V 294.512"
             style="fill:none;stroke:#cdcbca;stroke-width:5.796;stroke-linecap:butt;stroke-linejoin:miter;stroke-miterlimit:10;stroke-dasharray:none;stroke-opacity:1"
             id="path644"
             inkscape:connector-curvature="0" /></g><g
           id="g646"
           transform="translate(313.5483,548.4746)"><path
             d="m 0,0 c 0,50.341 40.809,91.149 91.149,91.149 50.34,0 91.15,-40.808 91.15,-91.149 V -294.512 H 0 Z"
             style="fill:#f1eff0;fill-opacity:1;fill-rule:nonzero;stroke:none"
             id="path648"
             inkscape:connector-curvature="0" /></g><g
           id="g650"
           transform="translate(301.5541,239.1964)"><path
             d="m 0,0 v 309.278 c 0,56.872 46.27,103.142 103.141,103.142 56.872,0 103.142,-46.27 103.142,-103.142 V 0 h -23.982 v 309.278 c 0,43.647 -35.513,79.16 -79.16,79.16 -43.647,0 -79.159,-35.513 -79.159,-79.16 L 23.982,0 Z"
             style="fill:#e94c53;fill-opacity:1;fill-rule:nonzero;stroke:none"
             id="path652"
             inkscape:connector-curvature="0" /></g><g
           id="g654"
           transform="translate(462.7928,253.9628)"><path
             d="M 0,0 V 125.888"
             style="fill:none;stroke:#cdcbca;stroke-width:5.796;stroke-linecap:butt;stroke-linejoin:miter;stroke-miterlimit:10;stroke-dasharray:none;stroke-opacity:1"
             id="path656"
             inkscape:connector-curvature="0" /></g><g
           id="g658"
           transform="translate(404.6975,253.9628)"><path
             d="M 0,0 V 71.246"
             style="fill:none;stroke:#cdcbca;stroke-width:5.796;stroke-linecap:butt;stroke-linejoin:miter;stroke-miterlimit:10;stroke-dasharray:none;stroke-opacity:1"
             id="path660"
             inkscape:connector-curvature="0" /></g><g
           id="g662"
           transform="translate(346.6024,253.9628)"><path
             d="M 0,0 V 294.512"
             style="fill:none;stroke:#cdcbca;stroke-width:5.796;stroke-linecap:butt;stroke-linejoin:miter;stroke-miterlimit:10;stroke-dasharray:none;stroke-opacity:1"
             id="path664"
             inkscape:connector-curvature="0" /></g><g
           id="g666"
           transform="translate(519.8311,548.4746)"><path
             d="m 0,0 c 0,50.341 40.809,91.149 91.149,91.149 50.341,0 91.15,-40.808 91.15,-91.149 V -294.512 H 0 Z"
             style="fill:#f1eff0;fill-opacity:1;fill-rule:nonzero;stroke:none"
             id="path668"
             inkscape:connector-curvature="0" /></g><g
           id="g670"
           transform="translate(507.8369,239.1964)"><path
             d="m 0,0 v 309.278 c 0,56.872 46.27,103.142 103.141,103.142 56.872,0 103.142,-46.27 103.142,-103.142 V 0 h -23.982 v 309.278 c 0,43.647 -35.513,79.16 -79.16,79.16 -43.647,0 -79.159,-35.513 -79.159,-79.16 L 23.982,0 Z"
             style="fill:#f6cc5d;fill-opacity:1;fill-rule:nonzero;stroke:none"
             id="path672"
             inkscape:connector-curvature="0" /></g><g
           id="g674"
           transform="translate(669.0756,253.9628)"><path
             d="M 0,0 V 125.888"
             style="fill:none;stroke:#cdcbca;stroke-width:5.796;stroke-linecap:butt;stroke-linejoin:miter;stroke-miterlimit:10;stroke-dasharray:none;stroke-opacity:1"
             id="path676"
             inkscape:connector-curvature="0" /></g><g
           id="g678"
           transform="translate(610.9802,253.9628)"><path
             d="M 0,0 V 71.246"
             style="fill:none;stroke:#cdcbca;stroke-width:5.796;stroke-linecap:butt;stroke-linejoin:miter;stroke-miterlimit:10;stroke-dasharray:none;stroke-opacity:1"
             id="path680"
             inkscape:connector-curvature="0" /></g><g
           id="g682"
           transform="translate(552.8852,253.9628)"><path
             d="M 0,0 V 294.512"
             style="fill:none;stroke:#cdcbca;stroke-width:5.796;stroke-linecap:butt;stroke-linejoin:miter;stroke-miterlimit:10;stroke-dasharray:none;stroke-opacity:1"
             id="path684"
             inkscape:connector-curvature="0" /></g><g
           id="g686"><g
             id="g688" /><g
             id="g748"><g
               clip-path="url(#clipPath692)"
               id="g746"><g
                 transform="translate(562.7036,504.7182)"
                 id="g696"><path
                   d="m 0,0 c 0,24.102 -20.045,43.628 -44.713,43.628 -24.668,0 -44.713,-19.526 -44.713,-43.628 0,-24.102 20.045,-43.628 44.713,-43.628 C -20.045,-43.628 0,-24.102 0,0 m -36.105,83.79 c 47.048,0 85.346,-35.964 85.346,-80.182 0,-44.218 -38.298,-80.182 -85.346,-80.182 -47.072,0 -85.37,35.964 -85.37,80.182 0,44.218 38.298,80.182 85.37,80.182"
                   style="fill:#ffffff;fill-opacity:1;fill-rule:nonzero;stroke:none"
                   id="path694"
                   inkscape:connector-curvature="0" /></g><g
                 transform="translate(536.8096,501.11)"
                 id="g700"><path
                   d="m 0,0 c 5.66,0 10.235,-4.457 10.235,-10.023 0,-5.518 -4.575,-10.022 -10.235,-10.022 -5.613,0 -10.211,4.504 -10.211,10.022 C -10.211,-4.457 -5.613,0 0,0"
                   style="fill:#ffffff;fill-opacity:1;fill-rule:nonzero;stroke:none"
                   id="path698"
                   inkscape:connector-curvature="0" /></g><g
                 transform="translate(497.4026,532.098)"
                 id="g704"><path
                   d="M 0,0 C 7.83,0 14.197,-6.155 14.197,-13.678 14.197,-21.248 7.83,-27.38 0,-27.38 c -7.877,0 -14.22,6.132 -14.22,13.702 C -14.22,-6.155 -7.877,0 0,0"
                   style="fill:#ffffff;fill-opacity:1;fill-rule:nonzero;stroke:none"
                   id="path702"
                   inkscape:connector-curvature="0" /></g><g
                 transform="translate(547.0446,491.0873)"
                 id="g708"><path
                   d="m 0,0 c 0,5.566 -4.575,10.023 -10.235,10.023 -5.613,0 -10.211,-4.457 -10.211,-10.023 0,-5.518 4.598,-10.023 10.211,-10.023 C -4.575,-10.023 0,-5.518 0,0 m -49.642,41.011 c -7.877,0 -14.22,-6.155 -14.22,-13.678 0,-7.571 6.343,-13.702 14.22,-13.702 7.83,0 14.197,6.131 14.197,13.702 0,7.523 -6.367,13.678 -14.197,13.678 m -24.125,-27.38 c 0,24.102 20.045,43.628 44.713,43.628 24.668,0 44.713,-19.526 44.713,-43.628 0,-24.102 -20.045,-43.628 -44.713,-43.628 -24.668,0 -44.713,19.526 -44.713,43.628"
                   style="fill:#261f1f;fill-opacity:1;fill-rule:nonzero;stroke:none"
                   id="path706"
                   inkscape:connector-curvature="0" /></g><g
                 transform="translate(441.2281,508.3264)"
                 id="g712"><path
                   d="m 0,0 c 0,-44.218 38.299,-80.182 85.37,-80.182 47.048,0 85.347,35.964 85.347,80.182 0,44.218 -38.299,80.182 -85.347,80.182 C 38.299,80.182 0,44.218 0,0 m -3.302,-15.4 c 4.528,4.67 4.387,12.146 -0.306,16.673 -5.684,5.495 -12.405,8.608 -19.315,10.212 6.014,51.835 52.284,92.28 108.293,92.28 60.066,0 108.929,-46.553 108.929,-103.765 0,-57.212 -48.863,-103.765 -108.929,-103.765 -55.207,0 -100.935,39.289 -108.01,90.04 0.967,-0.543 1.863,-1.203 2.665,-1.981 2.288,-2.217 5.236,-3.302 8.184,-3.302 3.089,0 6.178,1.203 8.489,3.608"
                   style="fill:#b91e1e;fill-opacity:1;fill-rule:nonzero;stroke:none"
                   id="path710"
                   inkscape:connector-curvature="0" /></g><g
                 transform="translate(437.6199,509.5999)"
                 id="g716"><path
                   d="m 0,0 c 4.693,-4.528 4.835,-12.004 0.307,-16.673 -2.312,-2.406 -5.401,-3.608 -8.49,-3.608 -2.948,0 -5.896,1.085 -8.184,3.301 -0.801,0.779 -1.697,1.439 -2.664,1.981 -0.614,4.505 -0.944,9.08 -0.944,13.726 0,3.891 0.236,7.711 0.661,11.484 C -12.405,8.608 -5.683,5.495 0,0"
                   style="fill:#b91e1e;fill-opacity:1;fill-rule:nonzero;stroke:none"
                   id="path714"
                   inkscape:connector-curvature="0" /></g><g
                 transform="translate(418.3055,519.8113)"
                 id="g720"><path
                   d="m 0,0 c -0.424,-3.773 -0.66,-7.594 -0.66,-11.485 0,-4.646 0.33,-9.221 0.943,-13.725 -7.57,4.457 -19.692,2.971 -27.663,1.085 0.519,4.15 0.802,8.372 0.802,12.64 0,3.891 -0.236,7.735 -0.684,11.532 C -19.409,1.486 -9.551,2.193 0,0"
                   style="fill:#b91e1e;fill-opacity:1;fill-rule:nonzero;stroke:none"
                   id="path718"
                   inkscape:connector-curvature="0" /></g><g
                 transform="translate(391.0437,519.8584)"
                 id="g724"><path
                   d="m 0,0 c 0.448,-3.797 0.684,-7.641 0.684,-11.532 0,-4.269 -0.283,-8.49 -0.802,-12.64 -3.019,-0.708 -5.424,-1.463 -6.792,-1.981 -6.084,-2.312 -12.9,0.731 -15.211,6.815 -2.334,6.084 0.731,12.9 6.816,15.211 C -13.796,-3.561 -7.924,-1.415 0,0"
                   style="fill:#b91e1e;fill-opacity:1;fill-rule:nonzero;stroke:none"
                   id="path722"
                   inkscape:connector-curvature="0" /></g><g
                 transform="translate(375.7384,515.7314)"
                 id="g728"><path
                   d="m 0,0 c -6.084,-2.311 -9.15,-9.127 -6.815,-15.211 2.311,-6.084 9.126,-9.127 15.211,-6.815 1.367,0.518 3.773,1.273 6.791,1.981 -6.556,-51.27 -52.542,-91.125 -108.127,-91.125 -60.066,0 -108.93,46.553 -108.93,103.765 0,57.212 48.864,103.765 108.93,103.765 C -36.978,96.36 9.268,55.939 15.305,4.127 7.381,2.712 1.509,0.566 0,0 m -92.94,-87.587 c 47.048,0 85.346,35.964 85.346,80.182 0,44.218 -38.298,80.182 -85.346,80.182 -47.072,0 -85.347,-35.964 -85.347,-80.182 0,-44.218 38.275,-80.182 85.347,-80.182"
                   style="fill:#b91e1e;fill-opacity:1;fill-rule:nonzero;stroke:none"
                   id="path726"
                   inkscape:connector-curvature="0" /></g><g
                 transform="translate(327.5114,508.3264)"
                 id="g732"><path
                   d="m 0,0 c 0,24.102 -19.998,43.628 -44.713,43.628 -24.668,0 -44.713,-19.526 -44.713,-43.628 0,-24.102 20.045,-43.628 44.713,-43.628 C -19.998,-43.628 0,-24.102 0,0 M -44.713,80.182 C 2.335,80.182 40.633,44.218 40.633,0 c 0,-44.218 -38.298,-80.182 -85.346,-80.182 -47.072,0 -85.347,35.964 -85.347,80.182 0,44.218 38.275,80.182 85.347,80.182"
                   style="fill:#ffffff;fill-opacity:1;fill-rule:nonzero;stroke:none"
                   id="path730"
                   inkscape:connector-curvature="0" /></g><g
                 transform="translate(301.6174,504.7182)"
                 id="g736"><path
                   d="m 0,0 c 5.66,0 10.235,-4.504 10.235,-10.023 0,-5.518 -4.575,-10.022 -10.235,-10.022 -5.613,0 -10.188,4.504 -10.188,10.022 C -10.188,-4.504 -5.613,0 0,0"
                   style="fill:#ffffff;fill-opacity:1;fill-rule:nonzero;stroke:none"
                   id="path734"
                   inkscape:connector-curvature="0" /></g><g
                 transform="translate(262.2104,535.7061)"
                 id="g740"><path
                   d="M 0,0 C 7.83,0 14.197,-6.155 14.197,-13.725 14.197,-21.248 7.83,-27.38 0,-27.38 c -7.83,0 -14.22,6.132 -14.22,13.655 C -14.22,-6.155 -7.83,0 0,0"
                   style="fill:#ffffff;fill-opacity:1;fill-rule:nonzero;stroke:none"
                   id="path738"
                   inkscape:connector-curvature="0" /></g><g
                 transform="translate(311.8524,494.6955)"
                 id="g744"><path
                   d="m 0,0 c 0,5.518 -4.575,10.023 -10.235,10.023 -5.613,0 -10.188,-4.505 -10.188,-10.023 0,-5.518 4.575,-10.023 10.188,-10.023 C -4.575,-10.023 0,-5.518 0,0 m -49.642,41.011 c -7.83,0 -14.22,-6.155 -14.22,-13.726 0,-7.523 6.39,-13.654 14.22,-13.654 7.83,0 14.197,6.131 14.197,13.654 0,7.571 -6.367,13.726 -14.197,13.726 m -24.125,-27.38 c 0,24.102 20.045,43.628 44.713,43.628 24.715,0 44.713,-19.526 44.713,-43.628 0,-24.102 -19.998,-43.628 -44.713,-43.628 -24.668,0 -44.713,19.526 -44.713,43.628"
                   style="fill:#261f1f;fill-opacity:1;fill-rule:nonzero;stroke:none"
                   id="path742"
                   inkscape:connector-curvature="0" /></g></g></g></g><g
           id="g750"
           transform="translate(436.5604,357.2498)"><path
             d="m 0,0 c 1.061,-14.321 -12.362,-26.759 -29.989,-27.786 -17.621,-1.025 -32.761,9.754 -33.813,24.072 z"
             style="fill:#261f1f;fill-opacity:1;fill-rule:nonzero;stroke:none"
             id="path752"
             inkscape:connector-curvature="0" /></g></g></g></g></svg>